<svg width="194" height="24" viewBox="0 0 194 24" fill="none" xmlns="http://www.w3.org/2000/svg">
<g clip-path="url(#clip0_8_252)">
<path d="M87.4452 0.918363C87.4452 0.765242 87.4452 0.612122 87.4452 0.612122C87.597 0.612122 87.597 0.612122 87.7488 0.612122C89.8742 0.612122 91.9996 0.612122 94.1251 0.612122C94.7323 0.612122 95.1878 0.612122 95.795 0.612122C95.9468 0.612122 96.0986 0.612122 96.2505 0.918363C97.7686 4.8995 99.2868 8.72751 100.653 12.7086C101.412 14.6992 102.171 16.8429 102.93 18.8335C102.93 18.9866 102.93 18.9866 103.082 19.1397C105.208 12.8618 107.333 6.73695 109.458 0.612122C112.191 0.612122 114.924 0.612122 117.808 0.612122C117.808 0.765242 117.808 0.765242 117.808 0.918363C117.504 0.918363 117.353 0.918363 117.201 1.07148C116.594 1.2246 116.138 1.68397 115.986 2.29645C115.835 2.90893 115.683 3.52141 115.683 3.98077C115.683 9.49312 115.683 14.8523 115.683 20.3647C115.683 20.824 115.835 21.4365 115.835 21.8959C116.138 22.9677 116.745 23.4271 117.808 23.5802C117.808 23.7333 117.808 23.7333 117.808 23.8865C114.316 23.8865 110.825 23.8865 107.333 23.8865C107.333 23.8865 107.333 23.7333 107.333 23.5802C108.547 23.5802 109.155 22.6615 109.307 21.7428C109.458 21.2834 109.458 20.824 109.458 20.3647C109.458 14.393 109.458 8.42127 109.458 2.44957C109.458 2.29645 109.458 2.29645 109.458 2.14333C109.307 2.75581 109.003 3.36829 108.851 3.98077C107.029 9.03375 105.359 14.2399 103.538 19.2928C103.538 19.446 103.538 19.7522 103.538 19.9053C103.993 21.1303 104.448 22.3552 104.904 23.5802C104.904 23.7333 104.904 23.7333 105.056 23.8865C104.904 23.8865 104.752 23.8865 104.752 23.8865C102.778 23.8865 100.805 23.8865 98.9831 23.8865C98.6795 23.8865 98.6795 23.8865 98.5277 23.5802C96.0986 16.996 93.5178 10.4118 91.0888 3.82765C91.0888 3.67453 90.9369 3.67453 90.9369 3.52141C90.9369 3.67453 90.9369 3.67453 90.9369 3.82765C90.9369 8.72751 90.9369 13.6274 90.9369 18.6804C90.9369 20.3647 91.696 21.8959 92.9105 22.9677C93.366 23.274 93.8214 23.5802 94.4287 23.5802C94.4287 23.7333 94.4287 23.7333 94.4287 23.8865C91.8478 23.8865 89.4188 23.8865 86.838 23.8865C86.838 23.7333 86.838 23.7333 86.838 23.5802C88.5079 23.4271 89.267 22.2021 89.8742 20.824C90.1779 20.0584 90.3297 19.2928 90.3297 18.5272C90.3297 13.4743 90.3297 8.42127 90.3297 3.52141C90.3297 2.60269 89.8742 1.83709 89.1152 1.37772C88.6597 0.918363 88.0525 0.918363 87.4452 0.918363Z" fill="black"/>
<path d="M0 23.7334C0 23.5803 0 23.4272 0 23.4272C0.303629 23.2741 0.607258 23.2741 0.910887 23.1209C1.66996 22.8147 1.97359 22.2022 2.1254 21.4366C2.27722 20.9772 2.27722 20.5179 2.27722 20.0585C2.27722 14.6993 2.27722 9.34008 2.27722 3.82774C2.27722 3.21526 2.1254 2.60278 1.97359 2.14342C1.66996 1.22469 1.21452 0.61221 0.151815 0.61221H0V0.45909V0.305969C0.151815 0.305969 0.151815 0.305969 0.303629 0.305969C4.09899 0.305969 7.89436 0.305969 11.6897 0.305969C14.726 0.305969 17.3069 1.53093 19.4323 3.82774C21.254 5.81831 22.0131 8.11512 22.3167 10.8713C22.4686 12.8619 22.3167 15.0055 21.5577 16.843C20.0395 20.5179 17.3069 22.8147 13.3597 23.5803C12.6006 23.7334 11.8415 23.7334 11.2343 23.7334C7.59073 23.7334 4.09899 23.7334 0.455444 23.7334C0.303629 23.7334 0.151815 23.7334 0 23.7334ZM8.3498 23.2741C9.10887 23.2741 10.0198 23.2741 10.7788 23.2741C12.6006 23.2741 13.6633 22.3553 14.4224 20.8241C15.0296 19.5992 15.3333 18.2211 15.4851 16.9961C15.7887 13.6275 15.7887 10.2588 15.4851 6.89015C15.1815 5.51207 14.8778 4.2871 14.2706 3.06214C13.6633 1.68405 12.4488 0.918452 10.9306 0.765331C10.1716 0.765331 9.4125 0.765331 8.65343 0.765331C8.50162 0.765331 8.3498 0.765331 8.19799 0.765331C8.3498 8.26824 8.3498 15.7711 8.3498 23.2741Z" fill="black"/>
<path d="M75.3 7.19632C75.3 7.0432 75.3 7.0432 75.3 6.89008C77.5772 6.89008 80.0062 6.89008 82.2835 6.89008C82.2835 6.89008 82.2835 7.0432 82.2835 7.19632C80.7653 7.34944 79.8544 8.5744 78.9435 9.64625C78.3363 10.565 77.8808 11.6368 77.5772 12.7087C76.8181 15.0055 76.0591 17.3023 75.4518 19.5991C75.3 19.9053 75.4518 20.0584 75.4518 20.3647C75.7554 21.4365 76.2109 22.5084 76.5145 23.5802C76.5145 23.5802 76.5145 23.7333 76.5145 23.8865C74.5409 23.8865 72.7191 23.8865 70.7455 23.8865C69.6828 20.3647 68.6201 16.8429 67.5574 13.3211C67.2538 14.393 66.9502 15.4648 66.6466 16.3836C66.3429 17.4554 66.0393 18.6804 65.5838 19.7522C65.5838 19.9053 65.5838 20.2116 65.5838 20.3647C65.8875 21.5897 66.3429 22.6615 66.7984 23.8865C66.6466 23.8865 66.6465 23.8865 66.4947 23.8865C64.673 23.8865 63.003 23.8865 61.1812 23.8865C61.0294 23.8865 60.8776 23.8865 60.8776 23.5802C59.3594 18.9866 57.6895 14.393 56.1713 9.79937C56.0195 9.34001 55.8677 8.88064 55.5641 8.5744C55.2605 7.96192 54.805 7.34944 54.0459 7.34944C54.0459 7.19632 54.0459 7.19632 54.0459 7.0432C57.0822 7.0432 59.9667 7.0432 63.003 7.0432C63.003 7.0432 63.003 7.19632 63.003 7.34944C62.8512 7.34944 62.6994 7.34944 62.5476 7.34944C62.2439 7.34944 61.9403 7.65568 61.9403 8.26816C61.9403 8.72752 61.9403 9.18688 62.0921 9.49313C63.1548 12.7087 64.2175 15.9242 65.2802 19.1397C65.2802 19.1397 65.2802 19.1397 65.2802 19.2928C65.2802 19.1397 65.2802 19.1397 65.432 18.9866C66.0393 16.8429 66.6465 14.8523 67.2538 12.7087C67.2538 12.5555 67.2538 12.5555 67.2538 12.4024C66.7984 11.1775 66.4947 9.95249 66.0393 8.5744C66.0393 8.42128 65.8875 8.26816 65.7357 7.96192C65.432 7.50256 64.9766 7.19632 64.3693 7.19632C64.3693 7.0432 64.3693 7.0432 64.3693 6.89008C67.4056 6.89008 70.2901 6.89008 73.3264 6.89008C73.3264 6.89008 73.3264 7.0432 73.3264 7.19632C73.1746 7.19632 73.1746 7.19632 73.0228 7.19632C72.2637 7.34944 71.9601 7.8088 72.1119 8.42128C72.1119 8.72752 72.2637 9.03376 72.2637 9.49313C73.1746 12.5555 73.9336 15.618 74.8445 18.8335C74.8445 18.8335 74.8445 18.9866 74.9964 19.1397C74.9964 18.9866 75.1482 18.9866 75.1482 18.9866C75.9072 16.5367 76.6663 14.2399 77.4254 11.7899C77.5772 11.3306 77.729 10.7181 77.729 10.1056C78.0326 8.5744 76.9699 7.19632 75.3 7.19632C75.3 7.19632 75.4518 7.34944 75.3 7.19632Z" fill="black"/>
<path d="M183.847 23.8865C183.847 23.8865 183.847 23.7333 183.847 23.5802C183.847 23.5802 183.847 23.5802 183.999 23.5802C184.91 23.5802 185.517 22.9677 185.669 22.049C185.821 21.5896 185.821 21.1303 185.821 20.6709C185.821 17.1491 185.821 13.6274 185.821 9.95248C185.821 9.64624 185.821 9.34 185.669 9.03376C185.517 8.72752 185.214 8.42128 184.91 8.42128C184.455 8.42128 184.151 8.42128 183.696 8.5744C182.937 8.72752 182.177 9.03376 181.57 9.34C181.418 9.34 181.418 9.49312 181.418 9.64624C181.418 13.4743 181.418 17.3023 181.418 21.1303C181.418 21.7428 181.57 22.3552 181.874 22.8146C182.177 23.274 182.481 23.4271 183.088 23.4271H183.24C183.24 23.5802 183.24 23.5802 183.24 23.7333C180.052 23.7333 177.016 23.7333 173.828 23.7333C173.828 23.7333 173.828 23.5802 173.828 23.4271C174.131 23.4271 174.283 23.4271 174.587 23.274C175.194 23.1209 175.498 22.5084 175.649 21.8959C175.801 21.4365 175.801 21.1303 175.801 20.6709C175.801 17.3023 175.801 13.9336 175.801 10.4118C175.801 9.95248 175.649 9.49312 175.498 9.03376C175.346 8.42128 174.739 7.96191 174.131 7.96191H173.979C173.979 7.80879 173.979 7.80879 173.979 7.65567C174.435 7.65567 174.739 7.65567 175.194 7.65567C176.56 7.65567 178.078 7.50255 179.445 7.19631C180.052 7.04319 180.811 6.89007 181.267 6.43071C181.418 6.43071 181.418 6.43071 181.57 6.27759C181.57 7.19631 181.57 7.96191 181.57 8.88064C181.722 8.88064 181.874 8.72752 181.874 8.72752C183.392 8.26816 184.758 7.65567 186.276 7.19631C187.187 6.89007 188.25 6.58383 189.161 6.58383C190.527 6.58383 191.438 7.50255 191.59 8.88064C191.59 9.18688 191.59 9.64624 191.59 9.95248C191.59 13.4743 191.59 16.8429 191.59 20.3647C191.59 20.824 191.59 21.2834 191.742 21.8959C191.894 22.9677 192.349 23.4271 193.564 23.4271C193.564 23.5802 193.564 23.5802 193.564 23.7333C190.224 23.8865 187.036 23.8865 183.847 23.8865Z" fill="black"/>
<path d="M137.24 20.5179C136.785 22.3553 135.267 24.0397 133.141 24.0397C132.079 24.0397 131.168 24.0397 130.409 23.4272C129.953 23.1209 129.65 22.8147 129.498 22.3553C129.498 22.2022 129.346 22.2022 129.346 22.0491C128.891 22.3553 128.435 22.6616 127.98 22.9678C126.462 23.8865 124.792 24.1928 123.122 23.8865C121.3 23.5803 119.934 22.2022 119.63 20.3648C119.326 18.068 120.389 16.5368 122.059 15.3118C123.273 14.5462 124.488 13.9337 125.854 13.4743C126.765 13.015 127.828 12.5556 128.739 12.2494C129.042 12.2494 129.194 12.2494 129.194 11.9431C129.194 10.8713 129.194 9.64633 129.194 8.57448C129.194 7.50264 128.435 7.04328 127.372 7.1964C126.613 7.34952 126.158 7.80888 125.702 8.42136C125.095 9.18696 124.792 10.1057 124.336 11.0244C124.032 11.79 123.729 12.4025 122.97 12.8619C122.363 13.3212 121.755 13.3212 121.148 13.015C120.541 12.7087 120.237 12.2494 120.085 11.4838C119.933 10.5651 120.541 9.79945 121.3 9.18696C122.514 8.26824 123.881 7.80888 125.247 7.34952C126.917 6.89016 128.739 6.58392 130.56 6.73704C131.168 6.73704 131.927 6.89016 132.534 7.1964C133.597 7.65576 134.204 8.57448 134.356 9.79945C134.508 10.5651 134.508 11.3307 134.508 12.0963C134.508 15.0055 134.508 17.7617 134.508 20.671C134.508 20.9773 134.508 21.1304 134.508 21.4366C134.508 21.7429 134.659 22.0491 135.115 22.2022C135.57 22.3553 135.874 22.2022 136.178 21.896C136.481 21.5897 136.633 21.1304 136.937 20.671C136.937 20.5179 137.089 20.3648 137.24 20.5179ZM129.194 12.7087C128.739 12.8619 128.283 13.015 127.98 13.1681C126.613 13.7806 125.854 14.6993 125.551 16.0774C125.247 17.4555 125.247 18.6804 125.399 20.0585C125.399 20.671 125.551 21.1304 125.702 21.7429C126.006 22.9678 126.917 23.2741 127.98 22.8147C128.435 22.5085 128.891 22.2022 129.346 21.896C129.346 21.896 129.498 21.7429 129.498 21.5897C129.498 20.9773 129.346 20.3648 129.346 19.5992C129.346 17.4555 129.346 15.1587 129.346 13.015C129.194 13.015 129.194 12.8619 129.194 12.7087Z" fill="black"/>
<path d="M54.1978 16.9961C53.7424 18.5273 53.1351 20.0585 52.0724 21.2835C50.7061 22.9678 48.8843 23.7334 46.7589 23.8865C43.2672 24.1928 39.9272 21.4366 38.8645 18.2211C38.2573 16.0774 38.1055 14.0868 38.8645 11.9431C39.7754 9.49319 41.4454 7.96198 43.7226 7.04326C45.3926 6.27766 47.2143 6.27766 48.8843 6.73702C51.617 7.50262 53.1351 9.18695 53.7424 11.6369C53.8942 12.0962 53.8942 12.5556 53.8942 12.8618C53.8942 13.015 53.8942 13.1681 53.7424 13.1681C53.5906 13.1681 53.5906 13.1681 53.4387 13.1681C50.5543 13.1681 47.518 13.1681 44.6335 13.1681C44.3299 13.1681 44.3299 13.3212 44.3299 13.4743C44.3299 15.0055 44.4817 16.5367 45.0889 17.9148C45.5444 19.1398 46.3035 20.0585 47.518 20.671C49.1879 21.2835 50.7061 21.1304 52.0724 19.9054C52.9833 19.1398 53.4387 18.2211 53.8942 17.1492C53.8942 16.843 54.046 16.843 54.1978 16.9961ZM46.6071 12.7087C47.2143 12.7087 47.9734 12.7087 48.5807 12.7087C48.8843 12.7087 48.8843 12.5556 48.8843 12.4025C48.8843 11.79 48.8843 11.1775 48.7325 10.4119C48.5807 9.49319 48.5807 8.57447 48.1252 7.80886C47.6698 7.04326 47.0625 6.89014 46.3035 7.04326C45.5444 7.19638 45.2408 7.80886 44.9371 8.42134C44.3299 9.79943 44.3299 11.1775 44.3299 12.5556C44.3299 12.7087 44.4817 12.7087 44.6335 12.7087C45.2408 12.7087 45.848 12.7087 46.6071 12.7087Z" fill="black"/>
<path d="M162.745 19.9054C162.897 19.9054 162.897 19.9054 163.049 20.0585C162.593 22.5085 160.923 24.3459 158.191 24.3459C157.28 24.3459 156.521 24.1928 155.762 23.7334C154.699 23.1209 154.092 22.0491 153.94 20.8241C153.788 20.2117 153.788 19.5992 153.788 18.9867C153.788 15.3118 153.788 11.6369 153.788 7.962C153.788 7.80888 153.788 7.65576 153.788 7.50264C153.029 7.50264 152.27 7.50264 151.511 7.50264C151.511 7.34952 151.511 7.1964 151.511 7.04328C152.27 7.04328 153.029 7.04328 153.788 7.04328C153.788 6.27768 153.788 5.35895 153.788 4.59335C154.092 4.59335 154.547 4.59335 154.851 4.59335C155.61 4.59335 156.369 4.44023 156.976 4.13399C158.191 3.67463 158.798 2.60278 158.95 1.37782C158.95 1.2247 158.95 1.07158 158.95 0.918457C159.102 0.918457 159.254 0.918457 159.254 0.918457C159.254 2.90902 159.254 5.05271 159.254 7.04328C160.468 7.04328 161.683 7.04328 162.897 7.04328C162.897 7.1964 162.897 7.34952 162.897 7.50264C161.683 7.50264 160.468 7.50264 159.254 7.50264C159.254 7.65576 159.254 7.80888 159.254 7.80888C159.254 11.6369 159.254 15.618 159.254 19.446C159.254 19.9054 159.254 20.5179 159.405 20.9773C159.709 22.0491 160.923 22.3553 161.834 21.5897C162.29 21.1304 162.593 20.5179 162.745 19.9054Z" fill="black"/>
<path d="M137.392 23.8865C137.392 23.8865 137.392 23.7334 137.392 23.5802C137.544 23.5802 137.696 23.5802 137.848 23.5802C138.759 23.4271 139.062 22.6615 139.214 22.049C139.366 21.5897 139.366 21.2834 139.366 20.8241C139.366 17.6085 139.366 14.393 139.366 11.1775C139.366 10.565 139.366 9.79939 139.062 9.18691C138.759 8.57443 138.455 8.26819 137.696 8.26819C137.544 8.26819 137.544 8.26819 137.392 8.26819V8.11507V7.96195C137.544 7.96195 137.544 7.96195 137.696 7.96195C139.062 7.96195 140.58 7.96195 141.947 7.65571C142.858 7.50259 143.617 7.34946 144.376 6.8901C144.528 6.73698 144.679 6.73698 144.831 6.58386C144.831 6.58386 144.831 6.58386 144.983 6.58386C144.983 7.96195 144.983 9.49315 144.983 10.8712C145.287 10.4119 145.59 9.95251 145.742 9.34003C146.197 8.42131 146.805 7.65571 147.716 7.04322C148.627 6.43074 149.993 6.43074 150.752 7.19634C151.511 7.80883 151.663 9.03379 151.207 9.79939C150.752 10.7181 149.841 11.1775 148.778 10.8712C148.323 10.7181 147.867 10.4119 147.412 10.2588C147.108 10.1056 146.805 9.95251 146.501 9.95251C146.046 9.79939 145.742 10.1056 145.59 10.4119C145.287 10.7181 145.135 11.1775 144.983 11.6368C144.983 11.79 144.983 11.79 144.983 11.9431C144.983 14.8524 144.983 17.9148 144.983 20.8241C144.983 21.4366 145.135 22.049 145.438 22.6615C145.894 23.274 146.349 23.5802 147.108 23.5802C147.26 23.5802 147.564 23.5802 147.716 23.5802C147.716 23.7334 147.716 23.7334 147.716 23.8865C144.224 23.8865 140.884 23.8865 137.392 23.8865Z" fill="black"/>
<path d="M34.0064 23.4272C34.0064 23.5803 34.0064 23.5803 34.0064 23.5803V23.7334C30.5147 23.7334 27.1748 23.7334 23.683 23.7334C23.683 23.7334 23.683 23.5803 23.683 23.4272H23.8348C24.5939 23.4272 25.0494 22.9678 25.353 22.2022C25.5048 21.7428 25.5048 21.4366 25.5048 20.9772C25.5048 17.4555 25.5048 13.9337 25.5048 10.4119C25.5048 9.95256 25.353 9.34008 25.2012 8.88072C25.0494 8.42135 24.5939 8.11511 23.9867 8.11511C23.8348 8.11511 23.8348 8.11511 23.683 8.11511C23.683 7.96199 23.683 7.96199 23.683 7.80887C23.8348 7.80887 23.8348 7.80887 23.8348 7.80887C24.7457 7.80887 25.8084 7.80887 26.7193 7.65575C27.782 7.65575 28.8447 7.34951 29.9074 7.04327C30.211 6.89015 30.5147 6.73703 30.8183 6.58391C30.9701 6.58391 30.9701 6.58391 31.1219 6.43079C31.1219 6.58391 31.2738 6.58391 31.2738 6.73703C31.2738 7.96199 31.2738 9.18696 31.2738 10.565C31.2738 10.7182 31.2738 10.7182 31.4256 10.8713C31.5774 10.565 31.7292 10.4119 31.881 10.1057C32.1846 9.18696 32.7919 8.26823 33.551 7.65575C34.1582 7.04327 34.9173 6.73703 35.6764 6.73703C36.5873 6.73703 37.4981 7.19639 37.8018 8.11511C38.1054 9.03384 37.8018 10.1057 37.0427 10.7182C36.2836 11.1775 35.5246 11.1775 34.7655 10.8713C34.4619 10.7182 34.0064 10.4119 33.7028 10.2588C32.9437 9.79944 32.3365 9.95256 31.881 10.7182C31.5774 11.3306 31.4256 11.9431 31.4256 12.7087C31.4256 15.3118 31.4256 18.0679 31.4256 20.671C31.4256 21.2835 31.5774 21.896 31.881 22.5084C32.3365 23.1209 32.7919 23.4272 33.551 23.4272C33.7028 23.4272 33.8546 23.4272 34.0064 23.4272Z" fill="black"/>
<path d="M163.656 8.26819C163.656 8.11507 163.656 8.11507 163.656 7.96195C164.112 7.96195 164.415 7.96195 164.719 7.96195C166.085 7.96195 167.451 7.80883 168.818 7.50259C169.425 7.34947 170.184 7.19634 170.64 6.73698C170.791 6.73698 170.791 6.73698 170.943 6.58386C170.943 6.73698 170.943 6.8901 170.943 7.04322C170.943 11.6368 170.943 16.2305 170.943 20.8241C170.943 21.4366 171.095 22.049 171.247 22.6615C171.399 23.4271 172.006 23.7334 172.765 23.7334C172.765 23.7334 172.765 23.7334 172.917 23.7334V23.8865V24.0396C169.729 24.0396 166.692 24.0396 163.504 24.0396C163.504 24.0396 163.504 23.8865 163.504 23.7334C164.567 23.7334 165.174 22.9678 165.326 21.8959C165.326 21.5897 165.326 21.2834 165.326 20.8241C165.326 17.6085 165.326 14.5461 165.326 11.3306C165.326 10.7181 165.174 10.1056 165.022 9.49315C164.871 8.72755 164.263 8.42131 163.504 8.42131C163.808 8.26819 163.808 8.26819 163.656 8.26819Z" fill="black"/>
<path d="M171.041 3.18279L167.927 0.0420532L164.813 3.18279L167.927 6.32353L171.041 3.18279Z" fill="black"/>
</g>
<defs>
<clipPath id="clip0_8_252">
<rect width="193.412" height="24" fill="white"/>
</clipPath>
</defs>
</svg>
