<svg width="212" height="26" viewBox="0 0 212 26" fill="none" xmlns="http://www.w3.org/2000/svg">
<path d="M0 8.9L1.2 8.2C1.6 9.1 2.3 10 3.5 10.2C4.5 10.4 5.3 10 5.4 9.1C5.6 8.4 5.1 8 4.3 7.4L3.3 6.7C2.2 6 1.2 5.1 1.4 3.7C1.7 2.1 3.2 1.3 4.9 1.6C6.3 1.8 7.3 2.8 7.8 3.9L6.6 4.5C6.2 3.7 5.6 3.1 4.7 3C3.9 2.8 3.2 3.1 3 3.9C2.9 4.6 3.4 5 4.2 5.5L5.2 6.2C6.6 7.1 7.3 8 7.1 9.3C6.8 11 5.2 11.9 3.4 11.6C1.7 11.4 0.5 10.3 0 8.9Z" fill="black"/>
<path d="M9.1 7.40001C9.8 4.60001 12.6 3.00001 15.4 3.80001C17.2 4.30001 18.5 5.50001 18.9 7.10001L17.5 7.60001C17.1 6.40001 16.3 5.50001 15 5.20001C13 4.70001 11.2 5.80001 10.6 7.80001C10 9.80001 11.1 11.7 13.1 12.2C14.4 12.5 15.5 12.2 16.5 11.3L17.4 12.5C16.2 13.6 14.5 14.1 12.7 13.6C10 12.9 8.3 10.2 9.1 7.40001Z" fill="black"/>
<path d="M24.5 17.3L23.1 12.8L21.4 12.2L20.1 15.8L18.6 15.3L21.9 6L25.3 7C27.2 7.7 28.1 9.3 27.5 11C27.1 12.2 26 13 24.8 13L26.3 17.8L24.5 17.3ZM21.8 10.8L23.7 11.5C24.8 11.9 25.6 11.4 25.9 10.5C26.2 9.6 25.8 8.7 24.8 8.4L22.9 7.7L21.8 10.8Z" fill="black"/>
<path d="M28.3 13.4C29.2 10.7 32.1 9.3 34.9 10.2C37.6 11.1 39.1 14 38.2 16.7C37.3 19.5 34.3 20.8 31.6 19.9C28.8 19 27.4 16.2 28.3 13.4ZM36.6 16.3C37.3 14.3 36.3 12.4 34.4 11.7C32.5 11 30.6 12 29.9 14C29.2 16 30.1 18 32.1 18.6C34 19.2 35.9 18.3 36.6 16.3Z" fill="black"/>
<path d="M41.3 12.5L42.8 12.9L40.8 21.1L45.2 22.2L44.9 23.6L39 22.1L41.3 12.5Z" fill="black"/>
<path d="M48.5 14.2L50.1 14.4L48.8 22.8L53.3 23.5L53 24.9L47 24L48.5 14.2Z" fill="black"/>
<path d="M60.7 17L57.4 16.8L57.5 15.4L65.7 15.9L65.6 17.3L62.3 17.1L61.8 25.6L60.2 25.5L60.7 17Z" fill="black"/>
<path d="M66.2 20.9C66.2 18 68.5 15.8 71.4 15.7C74.3 15.7 76.6 17.9 76.6 20.8C76.6 23.7 74.3 25.9 71.4 26C68.5 26 66.2 23.8 66.2 20.9ZM74.9 20.8C74.9 18.7 73.3 17.2 71.3 17.2C69.2 17.2 67.8 18.8 67.8 20.9C67.8 23 69.3 24.6 71.4 24.5C73.4 24.5 74.9 22.9 74.9 20.8Z" fill="black"/>
<path d="M82.2 20.5C81.8 17.6 83.9 15.1 86.7 14.8C88.5 14.6 90.2 15.3 91.2 16.5L90.1 17.5C89.3 16.5 88.2 16 86.9 16.2C84.9 16.5 83.5 18.2 83.8 20.3C84.1 22.4 85.8 23.7 87.8 23.5C89.1 23.3 90 22.6 90.6 21.4L91.9 22.1C91.3 23.6 89.8 24.7 88 24.9C85.1 25.3 82.6 23.4 82.2 20.5Z" fill="black"/>
<path d="M92.4 14.1L93.9 13.7L94.8 17.5L99.6 16.3L98.7 12.5L100.2 12.1L102.5 21.7L101 22.1L99.9 17.7L95.2 19L96.3 23.4L94.8 23.8L92.4 14.1Z" fill="black"/>
<path d="M110.7 17.4L106.5 18.8L106.4 20.6L104.8 21.1L105.7 10.2L106.2 10L113.6 18.1L112 18.7L110.7 17.4ZM106.8 13L106.5 17.4L109.6 16.3L106.8 13Z" fill="black"/>
<path d="M119.4 5.60001L122.7 15.1L122.2 15.3L114.2 10.8L116.4 17.1L114.9 17.6L111.6 8.10001L112.1 7.90001L120 12.4L117.8 6.10001L119.4 5.60001Z" fill="black"/>
<path d="M123 9.6C122.3 6.8 124 4.1 126.8 3.4C128.5 3 130.1 3.4 131.3 4.4L130.4 5.6C129.5 4.8 128.4 4.5 127.2 4.8C125.1 5.3 124.1 7.2 124.6 9.2C125.1 11.3 126.9 12.4 129 11.9C130.3 11.6 131.1 10.7 131.5 9.7L131.2 8.7L128.2 9.4L128 8L132.5 6.9L133.2 9.6C132.7 11.3 131.3 12.8 129.4 13.3C126.5 14 123.8 12.4 123 9.6Z" fill="black"/>
<path d="M134 1.9L140.4 0.900002L140.6 2.3L135.7 3L136.1 5.5L139.8 4.9L140 6.3L136.4 7L136.9 10.1L141.9 9.3L142.1 10.7L135.5 11.7L134 1.9Z" fill="black"/>
<path d="M147.4 0.3L153.8 0L153.9 1.4L149.1 1.6L149.2 4.6L153.1 4.4L153.2 5.8L149.3 6L149.5 10.1L147.9 10.2L147.4 0.3Z" fill="black"/>
<path d="M155.6 0H157.2L157.3 8.5H161.8V9.9H155.7L155.6 0Z" fill="black"/>
<path d="M169.3 8.6L164.8 8.4L164 10L162.3 9.9L167.2 0.0999985H167.7L171.5 10.4L169.8 10.3L169.3 8.6ZM167.4 3L165.5 7L168.8 7.2L167.4 3Z" fill="black"/>
<path d="M181.4 1.6L175.8 11.1L175.3 11L172.2 0.5L174 0.7L176 7.9L179.7 1.4L181.4 1.6Z" fill="black"/>
<path d="M181.7 6.59999C182.3 3.79999 185.1 2.09999 187.9 2.79999C190.7 3.39999 192.5 6.09999 191.8 8.89999C191.2 11.7 188.4 13.4 185.6 12.7C182.8 12.1 181.1 9.39999 181.7 6.59999ZM190.2 8.49999C190.7 6.49999 189.5 4.59999 187.5 4.19999C185.5 3.69999 183.7 4.89999 183.2 6.99999C182.7 9.09999 183.9 10.9 185.9 11.4C187.9 11.8 189.8 10.6 190.2 8.49999Z" fill="black"/>
<path d="M193.5 10.4L195.4 4.8L196.9 5.3L195 11C194.4 12.7 195.2 13.8 196.5 14.3C197.8 14.7 199.1 14.3 199.7 12.6L201.6 6.9L203.1 7.4L201.2 13C200.4 15.5 198.2 16.4 196 15.7C193.8 14.9 192.7 12.9 193.5 10.4Z" fill="black"/>
<path d="M208 19.7L206.6 15.2L204.9 14.6L203.6 18.2L202.1 17.7L205.4 8.39999L208.8 9.59999C210.7 10.3 211.6 11.9 211 13.6C210.6 14.8 209.5 15.6 208.3 15.6L209.7 20.4L208 19.7ZM205.4 13.2L207.3 13.9C208.4 14.3 209.2 13.9 209.5 13C209.8 12.1 209.5 11.2 208.4 10.9L206.5 10.2L205.4 13.2Z" fill="black"/>
</svg>
